<svg xmlns="http://www.w3.org/2000/svg" width="34" height="40" viewBox="0 0 34 40" fill="none">
<path d="M28.357 16.8419C28.357 23.0965 23.2866 28.1669 17.032 28.1669C10.7774 28.1669 5.70698 23.0965 5.70698 16.8419C5.70698 10.5872 10.7774 5.51687 17.032 5.51687C23.2866 5.51687 28.357 10.5872 28.357 16.8419Z" fill="#3DCAB1"/>
<path d="M33.6637 16.8419C33.6637 12.5945 32.0445 8.33893 28.7897 5.08418C25.535 1.82944 21.2875 0.218342 17.032 0.210205C12.7764 0.218342 8.52081 1.83758 5.27421 5.08418C-1.21901 11.5774 -1.21901 22.1065 5.27421 28.5997L16.0067 39.3322C16.5763 39.9018 17.4958 39.8937 18.0572 39.3322L28.7897 28.5997C32.0445 25.3612 33.6637 21.1057 33.6637 16.8419ZM17.032 29.7145C13.7447 29.7145 10.4411 28.4614 7.92682 25.9471C2.89824 20.9185 2.89824 12.7654 7.92682 7.7368C10.4411 5.22251 13.7365 3.9613 17.032 3.96943C20.3193 3.96943 23.6228 5.22251 26.1371 7.7368C28.6514 10.2511 29.9126 13.5465 29.9045 16.8419C29.9045 20.1292 28.6514 23.4328 26.1371 25.9471C23.6228 28.4614 20.3274 29.7226 17.032 29.7145Z" fill="#1B365D"/>
</svg>